<svg width="24" height="25" viewBox="0 0 24 25" fill="none" xmlns="http://www.w3.org/2000/svg">
<path d="M19.6729 18.3825L20.2019 18.9145L19.6719 18.3825H19.6729ZM7.06691 16.2265L7.59491 15.6945L7.06591 16.2265H7.06691ZM2.94091 5.63447L2.41291 5.10347L2.94191 5.63547L2.94091 5.63447ZM14.8789 15.3905L15.3359 14.9375L14.2769 13.8735L13.8229 14.3265L14.8789 15.3905ZM16.8649 14.7475L18.7759 15.7865L19.4909 14.4685L17.5809 13.4305L16.8649 14.7475ZM19.1429 17.8505L17.7229 19.2635L18.7799 20.3265L20.1999 18.9145L19.1429 17.8505ZM16.8569 19.7175C15.4069 19.8535 11.6569 19.7325 7.59491 15.6945L6.53691 16.7575C10.9689 21.1645 15.1879 21.3805 16.9969 21.2115L16.8559 19.7175H16.8569ZM7.59491 15.6945C3.72391 11.8445 3.08191 8.60747 3.00191 7.20247L1.50391 7.28747C1.60391 9.05547 2.39891 12.6435 6.53691 16.7575L7.59491 15.6945ZM8.96991 9.51447L9.25691 9.22847L8.20091 8.16547L7.91391 8.45047L8.97091 9.51347L8.96991 9.51447ZM9.48491 5.59347L8.22491 3.90947L7.02391 4.80947L8.28391 6.49247L9.48491 5.59347ZM3.98391 3.54247L2.41391 5.10247L3.47191 6.16647L5.04091 4.60647L3.98391 3.54247ZM8.44191 8.98247C7.91191 8.45047 7.91191 8.45047 7.91191 8.45247H7.90991L7.90691 8.45647C7.85969 8.50466 7.81717 8.55723 7.77991 8.61347C7.72591 8.69347 7.66691 8.79847 7.61691 8.93147C7.49514 9.27479 7.46481 9.64388 7.52891 10.0025C7.66291 10.8675 8.25891 12.0105 9.78491 13.5285L10.8429 12.4645C9.41391 11.0445 9.07391 10.1805 9.01091 9.77247C8.98091 9.57847 9.01191 9.48247 9.02091 9.46047C9.02591 9.44647 9.02791 9.44547 9.02091 9.45447C9.01209 9.46834 9.00205 9.48139 8.99091 9.49347L8.98091 9.50347C8.97767 9.50658 8.97434 9.50958 8.97091 9.51247L8.44091 8.98247H8.44191ZM9.78491 13.5285C11.3119 15.0465 12.4609 15.6385 13.3269 15.7705C13.7699 15.8385 14.1269 15.7845 14.3979 15.6835C14.5494 15.6274 14.6912 15.5477 14.8179 15.4475C14.8351 15.4331 14.8518 15.4181 14.8679 15.4025L14.8749 15.3965L14.8779 15.3935L14.8789 15.3915C14.8789 15.3915 14.8799 15.3905 14.3509 14.8585C13.8209 14.3265 13.8239 14.3255 13.8239 14.3255L13.8259 14.3235L13.8279 14.3215L13.8339 14.3165L13.8439 14.3065C13.8559 14.2957 13.8686 14.2857 13.8819 14.2765C13.8919 14.2695 13.8889 14.2725 13.8749 14.2785C13.8499 14.2875 13.7519 14.3185 13.5549 14.2885C13.1409 14.2245 12.2709 13.8845 10.8429 12.4645L9.78491 13.5285ZM8.22491 3.90847C7.20491 2.54847 5.20091 2.33247 3.98391 3.54247L5.04091 4.60647C5.57291 4.07747 6.51691 4.13247 7.02391 4.80947L8.22391 3.90847H8.22491ZM3.00291 7.20347C2.98291 6.85747 3.14191 6.49547 3.47191 6.16747L2.41291 5.10347C1.87591 5.63747 1.45291 6.39347 1.50391 7.28747L3.00291 7.20347ZM17.7229 19.2635C17.4489 19.5375 17.1529 19.6915 16.8579 19.7185L16.9969 21.2115C17.7319 21.1425 18.3329 20.7725 18.7809 20.3275L17.7229 19.2635ZM9.25691 9.22847C10.2419 8.24947 10.3149 6.70247 9.48591 5.59447L8.28491 6.49347C8.68791 7.03247 8.62791 7.73947 8.19991 8.16647L9.25691 9.22847ZM18.7769 15.7875C19.5939 16.2315 19.7209 17.2775 19.1439 17.8515L20.2019 18.9145C21.5419 17.5815 21.1289 15.3585 19.4919 14.4695L18.7769 15.7875ZM15.3359 14.9385C15.7199 14.5565 16.3379 14.4625 16.8659 14.7485L17.5819 13.4315C16.4979 12.8415 15.1539 13.0045 14.2779 13.8745L15.3359 14.9385Z" fill="#07BD19"/>
</svg>
