<svg width="32" height="33" viewBox="0 0 32 33" fill="none" xmlns="http://www.w3.org/2000/svg">
<path d="M4.61875 27.8801C6.57341 29.8334 9.71475 29.8334 16.0001 29.8334C22.2854 29.8334 25.4281 29.8334 27.3801 27.8801C29.3334 25.9294 29.3334 22.7854 29.3334 16.5001C29.3334 10.2147 29.3334 7.07208 27.3801 5.11875C25.4294 3.16675 22.2854 3.16675 16.0001 3.16675C9.71475 3.16675 6.57208 3.16675 4.61875 5.11875C2.66675 7.07341 2.66675 10.2147 2.66675 16.5001C2.66675 22.7854 2.66675 25.9281 4.61875 27.8801Z" fill="#E5FFD0"/>
<path d="M24.7747 13.1322C24.861 13.0308 24.9263 12.9133 24.9667 12.7864C25.007 12.6595 25.0216 12.5259 25.0096 12.3933C24.9976 12.2607 24.9592 12.1318 24.8968 12.0142C24.8343 11.8966 24.749 11.7927 24.6458 11.7086C24.5427 11.6244 24.4237 11.5617 24.296 11.5241C24.1683 11.4865 24.0343 11.4748 23.902 11.4897C23.7697 11.5045 23.6417 11.5457 23.5255 11.6107C23.4093 11.6756 23.3073 11.7632 23.2253 11.8682L16.3347 20.3082C16.1375 20.2375 15.9232 20.2305 15.7219 20.2884C15.5206 20.3462 15.3426 20.4658 15.2131 20.6303C15.0835 20.7948 15.0089 20.9959 14.9999 21.2051C14.9908 21.4143 15.0478 21.6211 15.1627 21.7962L15.544 22.3802C15.63 22.5118 15.7459 22.6213 15.8821 22.6998C16.0184 22.7783 16.1713 22.8236 16.3284 22.8319C16.4854 22.8402 16.6422 22.8113 16.786 22.7477C16.9298 22.684 17.0566 22.5873 17.156 22.4655L24.7747 13.1322ZM19.4413 13.1322C19.5277 13.0308 19.593 12.9133 19.6333 12.7864C19.6737 12.6595 19.6883 12.5259 19.6763 12.3933C19.6643 12.2607 19.6259 12.1318 19.5634 12.0142C19.501 11.8966 19.4157 11.7927 19.3125 11.7086C19.2093 11.6244 19.0904 11.5617 18.9627 11.5241C18.8349 11.4865 18.701 11.4748 18.5687 11.4897C18.4364 11.5045 18.3084 11.5457 18.1922 11.6107C18.076 11.6756 17.9739 11.7632 17.892 11.8682L11.048 20.2522L8.77467 17.4682C8.60504 17.2692 8.36422 17.1445 8.10382 17.121C7.84341 17.0974 7.58413 17.1768 7.38153 17.3421C7.17893 17.5073 7.04912 17.7454 7.01993 18.0053C6.99073 18.2651 7.06447 18.526 7.22534 18.7322L10.2733 22.4655C10.3671 22.5804 10.4853 22.673 10.6193 22.7365C10.7533 22.8001 10.8997 22.8331 11.048 22.8331C11.1963 22.8331 11.3428 22.8001 11.4767 22.7365C11.6107 22.673 11.7289 22.5804 11.8227 22.4655L19.4413 13.1322Z" fill="#78C63C"/>
</svg>
