<svg width="218" height="28" viewBox="0 0 218 28" fill="none" xmlns="http://www.w3.org/2000/svg">
<g clip-path="url(#clip0_36_13114)">
<path d="M26.6842 10.823L14.5964 0.340245C14.3276 0.120216 13.9908 0 13.6434 0C13.296 0 12.9593 0.120216 12.6904 0.340245L0.602676 10.823C0.407965 10.9787 0.252199 11.1776 0.147727 11.404C0.0432542 11.6303 -0.00705224 11.8779 0.000795503 12.1271V27.776H27.2861V12.1271C27.2803 11.8801 27.2239 11.6369 27.1204 11.4126C27.0168 11.1883 26.8684 10.9876 26.6842 10.823ZM25.2296 25.7196H2.05722V12.2775L13.6434 2.19604L25.2296 12.2775V25.7196Z" fill="url(#paint0_linear_36_13114)"/>
<path d="M21.7688 11.9265L15.75 6.71018C15.1658 6.20208 14.4177 5.92225 13.6434 5.92225C12.8692 5.92225 12.121 6.20208 11.5368 6.71018L5.51802 11.9265C5.1489 12.2522 4.85467 12.654 4.65553 13.1042C4.4564 13.5544 4.35709 14.0424 4.36442 14.5346V24.0143H22.9224V14.5346C22.9297 14.0424 22.8304 13.5544 22.6313 13.1042C22.4322 12.654 22.1379 12.2522 21.7688 11.9265ZM10.935 18.798C10.8915 19.2492 10.7728 19.69 10.5839 20.102L10.2328 20.6538C10.0449 20.8667 9.84384 21.0677 9.63088 21.2556C9.12931 21.3058 8.92868 21.0049 8.92868 20.7039C8.93719 20.3509 8.97071 19.9989 9.029 19.6506C9.06922 19.3683 9.086 19.0831 9.07915 18.798C8.98523 18.2042 8.79907 17.6288 8.52743 17.0926C8.42711 16.7415 8.27664 16.3904 8.12617 15.9892C8.0069 15.5642 7.93953 15.1263 7.92555 14.6851C7.91736 14.4333 7.93416 14.1813 7.9757 13.9327L8.17633 13.2807L8.52743 12.729L8.72806 12.4782L8.82837 12.3779H8.87853V12.5284C8.87813 12.4646 8.89124 12.4015 8.917 12.3432C8.94275 12.2849 8.98057 12.2327 9.02795 12.19C9.07533 12.1474 9.13121 12.1153 9.19191 12.0958C9.2526 12.0763 9.31674 12.0699 9.38009 12.077C9.49981 12.077 9.61463 12.1245 9.69929 12.2092C9.78394 12.2938 9.8315 12.4086 9.8315 12.5284V12.6788C9.8315 12.729 9.78135 12.729 9.78135 12.7791H9.73119V13.0299C9.74659 13.1169 9.72869 13.2064 9.68103 13.2807C9.68103 13.4312 9.63088 13.5817 9.63088 13.7321C9.58978 13.8789 9.57283 14.0313 9.58072 14.1835C9.57265 14.3028 9.58973 14.4224 9.63088 14.5346C9.80113 15.1511 10.0542 15.7417 10.3832 16.2901L10.8346 17.3936C10.9448 17.853 10.9787 18.3275 10.935 18.798ZM15.3989 18.9484C15.3477 19.4306 15.2295 19.9033 15.0478 20.3528C14.8575 20.8005 14.5853 21.2087 14.2453 21.5566C14.1583 21.6555 14.0359 21.7162 13.9045 21.7255C13.7731 21.7349 13.6433 21.6923 13.5431 21.6067C13.4776 21.5631 13.4246 21.5032 13.3894 21.4328C13.3542 21.3624 13.338 21.284 13.3425 21.2055C13.3987 20.8064 13.4322 20.4045 13.4428 20.0017C13.4965 19.6528 13.5299 19.3012 13.5431 18.9484C13.4354 18.2284 13.2504 17.5222 12.9914 16.8418C12.8279 16.4169 12.6938 15.9811 12.5901 15.5378C12.4739 15.0591 12.3901 14.5732 12.3393 14.0832C12.348 13.8298 12.3816 13.5778 12.4397 13.3309C12.4829 13.0744 12.55 12.8225 12.6403 12.5785L12.9412 11.9265L13.192 11.6255L13.2923 11.5252C13.2923 11.4751 13.3425 11.4751 13.3425 11.4249V11.5754C13.3354 11.512 13.3418 11.4479 13.3613 11.3872C13.3808 11.3265 13.4129 11.2706 13.4556 11.2232C13.4982 11.1759 13.5504 11.138 13.6087 11.1123C13.667 11.0865 13.7301 11.0734 13.7939 11.0738C13.8617 11.0658 13.9304 11.0732 13.995 11.0955C14.0595 11.1179 14.1181 11.1546 14.1664 11.2029C14.2147 11.2512 14.2514 11.3098 14.2737 11.3743C14.2961 11.4388 14.3035 11.5076 14.2955 11.5754V11.6757C14.2955 11.7259 14.2453 11.7259 14.2453 11.776H14.1951V11.9265C14.145 12.0268 14.145 12.1271 14.0948 12.2274C14.0447 12.3277 14.0447 12.5785 14.0447 12.7791C14.0032 12.9429 13.9863 13.112 13.9945 13.2807C13.9838 13.4495 14.0008 13.6189 14.0447 13.7823C14.2057 14.5294 14.4584 15.2538 14.797 15.939L15.2484 17.2431C15.394 17.7991 15.4449 18.3756 15.3989 18.9484ZM19.6121 18.798C19.592 19.2531 19.4721 19.6983 19.261 20.102L18.9099 20.6538C18.7352 20.8787 18.533 21.0809 18.308 21.2556C17.8064 21.3058 17.6058 21.0049 17.6058 20.7039C17.6143 20.3509 17.6478 19.9989 17.7061 19.6506C17.7463 19.3683 17.7631 19.0831 17.7563 18.798C17.6805 18.2159 17.4932 17.6539 17.2045 17.1428C17.1042 16.7917 16.9538 16.4406 16.8033 16.0393C16.684 15.6143 16.6166 15.1765 16.6027 14.7353C16.5945 14.4834 16.6113 14.2314 16.6528 13.9829L16.8534 13.3309L17.2045 12.7791L17.4052 12.5284L17.5055 12.428H17.5556V12.5284C17.5552 12.4646 17.5684 12.4015 17.5941 12.3432C17.6199 12.2849 17.6577 12.2327 17.7051 12.19C17.7524 12.1474 17.8083 12.1153 17.869 12.0958C17.9297 12.0763 17.9939 12.0699 18.0572 12.077C18.1769 12.077 18.2917 12.1245 18.3764 12.2092C18.4611 12.2938 18.5086 12.4086 18.5086 12.5284V12.6788C18.5086 12.729 18.4585 12.729 18.4585 12.7791H18.4083V13.0299C18.3581 13.1302 18.3581 13.2306 18.308 13.2807C18.2578 13.3309 18.2578 13.5817 18.2578 13.7321C18.2167 13.8789 18.1998 14.0313 18.2077 14.1835C18.1996 14.3028 18.2167 14.4224 18.2578 14.5346C18.4281 15.1511 18.6812 15.7417 19.0102 16.2901L19.4616 17.3936C19.5886 17.8502 19.6394 18.3247 19.6121 18.798Z" fill="url(#paint1_linear_36_13114)"/>
<path d="M41.3901 6.55593V23.4039H37.2861V6.55593H41.3901Z" fill="white"/>
<path d="M49.3323 23.5959C48.1643 23.5959 47.1243 23.3959 46.2123 22.9959C45.3003 22.5959 44.5803 22.0519 44.0523 21.3639C43.5243 20.6599 43.2283 19.8759 43.1643 19.0119H47.2203C47.2683 19.4759 47.4843 19.8519 47.8683 20.1399C48.2523 20.4279 48.7243 20.5719 49.2843 20.5719C49.7963 20.5719 50.1883 20.4759 50.4603 20.2839C50.7483 20.0759 50.8923 19.8119 50.8923 19.4919C50.8923 19.1079 50.6923 18.8279 50.2923 18.6519C49.8923 18.4599 49.2443 18.2519 48.3483 18.0279C47.3883 17.8039 46.5883 17.5719 45.9483 17.3319C45.3083 17.0759 44.7563 16.6839 44.2923 16.1559C43.8283 15.6119 43.5963 14.8839 43.5963 13.9719C43.5963 13.2039 43.8043 12.5079 44.2203 11.8839C44.6523 11.2439 45.2763 10.7399 46.0923 10.3719C46.9243 10.0039 47.9083 9.81993 49.0443 9.81993C50.7243 9.81993 52.0443 10.2359 53.0043 11.0679C53.9803 11.8999 54.5403 13.0039 54.6843 14.3799H50.8923C50.8283 13.9159 50.6203 13.5479 50.2683 13.2759C49.9323 13.0039 49.4843 12.8679 48.9243 12.8679C48.4443 12.8679 48.0763 12.9639 47.8203 13.1559C47.5643 13.3319 47.4363 13.5799 47.4363 13.8999C47.4363 14.2839 47.6363 14.5719 48.0363 14.7639C48.4523 14.9559 49.0923 15.1479 49.9563 15.3399C50.9483 15.5959 51.7563 15.8519 52.3803 16.1079C53.0043 16.3479 53.5483 16.7479 54.0123 17.3079C54.4923 17.8519 54.7403 18.5879 54.7563 19.5159C54.7563 20.2999 54.5323 21.0039 54.0843 21.6279C53.6523 22.2359 53.0203 22.7159 52.1883 23.0679C51.3723 23.4199 50.4203 23.5959 49.3323 23.5959Z" fill="white"/>
<path d="M62.8831 23.5959C61.5711 23.5959 60.3871 23.3159 59.3311 22.7559C58.2911 22.1959 57.4671 21.3959 56.8591 20.3559C56.2671 19.3159 55.9711 18.0999 55.9711 16.7079C55.9711 15.3319 56.2751 14.1239 56.8831 13.0839C57.4911 12.0279 58.3231 11.2199 59.3791 10.6599C60.4351 10.0999 61.6191 9.81993 62.9311 9.81993C64.2431 9.81993 65.4271 10.0999 66.4831 10.6599C67.5391 11.2199 68.3711 12.0279 68.9791 13.0839C69.5871 14.1239 69.8911 15.3319 69.8911 16.7079C69.8911 18.0839 69.5791 19.2999 68.9551 20.3559C68.3471 21.3959 67.5071 22.1959 66.4351 22.7559C65.3791 23.3159 64.1951 23.5959 62.8831 23.5959ZM62.8831 20.0439C63.6671 20.0439 64.3311 19.7559 64.8751 19.1799C65.4351 18.6039 65.7151 17.7799 65.7151 16.7079C65.7151 15.6359 65.4431 14.8119 64.8991 14.2359C64.3711 13.6599 63.7151 13.3719 62.9311 13.3719C62.1311 13.3719 61.4671 13.6599 60.9391 14.2359C60.4111 14.7959 60.1471 15.6199 60.1471 16.7079C60.1471 17.7799 60.4031 18.6039 60.9151 19.1799C61.4431 19.7559 62.0991 20.0439 62.8831 20.0439Z" fill="white"/>
<path d="M75.6923 5.64393V23.4039H71.5883V5.64393H75.6923Z" fill="white"/>
<path d="M77.3704 16.6839C77.3704 15.3079 77.6264 14.0999 78.1384 13.0599C78.6664 12.0199 79.3784 11.2199 80.2744 10.6599C81.1704 10.0999 82.1704 9.81993 83.2744 9.81993C84.2184 9.81993 85.0424 10.0119 85.7464 10.3959C86.4664 10.7799 87.0184 11.2839 87.4024 11.9079V10.0119H91.5065V23.4039H87.4024V21.5079C87.0024 22.1319 86.4425 22.6359 85.7225 23.0199C85.0185 23.4039 84.1945 23.5959 83.2505 23.5959C82.1624 23.5959 81.1704 23.3159 80.2744 22.7559C79.3784 22.1799 78.6664 21.3719 78.1384 20.3319C77.6264 19.2759 77.3704 18.0599 77.3704 16.6839ZM87.4024 16.7079C87.4024 15.6839 87.1144 14.8759 86.5384 14.2839C85.9784 13.6919 85.2905 13.3959 84.4744 13.3959C83.6584 13.3959 82.9624 13.6919 82.3864 14.2839C81.8264 14.8599 81.5464 15.6599 81.5464 16.6839C81.5464 17.7079 81.8264 18.5239 82.3864 19.1319C82.9624 19.7239 83.6584 20.0199 84.4744 20.0199C85.2905 20.0199 85.9784 19.7239 86.5384 19.1319C87.1144 18.5399 87.4024 17.7319 87.4024 16.7079Z" fill="white"/>
<path d="M101.46 19.9239V23.4039H99.3715C97.8835 23.4039 96.7235 23.0439 95.8915 22.3239C95.0595 21.5879 94.6435 20.3959 94.6435 18.7479V13.4199H93.0115V10.0119H94.6435V6.74793H98.7475V10.0119H101.436V13.4199H98.7475V18.7959C98.7475 19.1959 98.8435 19.4839 99.0355 19.6599C99.2275 19.8359 99.5475 19.9239 99.9955 19.9239H101.46Z" fill="white"/>
<path d="M105.33 8.61993C104.61 8.61993 104.018 8.41193 103.554 7.99593C103.106 7.56393 102.882 7.03593 102.882 6.41193C102.882 5.77193 103.106 5.24393 103.554 4.82793C104.018 4.39593 104.61 4.17993 105.33 4.17993C106.034 4.17993 106.61 4.39593 107.058 4.82793C107.522 5.24393 107.754 5.77193 107.754 6.41193C107.754 7.03593 107.522 7.56393 107.058 7.99593C106.61 8.41193 106.034 8.61993 105.33 8.61993ZM107.37 10.0119V23.4039H103.266V10.0119H107.37Z" fill="white"/>
<path d="M122.488 16.4919C122.488 16.8759 122.464 17.2759 122.416 17.6919H113.128C113.192 18.5239 113.456 19.1639 113.92 19.6119C114.4 20.0439 114.984 20.2599 115.672 20.2599C116.696 20.2599 117.408 19.8279 117.808 18.9639H122.176C121.952 19.8439 121.544 20.6359 120.952 21.3399C120.376 22.0439 119.648 22.5959 118.768 22.9959C117.888 23.3959 116.904 23.5959 115.816 23.5959C114.504 23.5959 113.336 23.3159 112.312 22.7559C111.288 22.1959 110.488 21.3959 109.912 20.3559C109.336 19.3159 109.048 18.0999 109.048 16.7079C109.048 15.3159 109.328 14.0999 109.888 13.0599C110.464 12.0199 111.264 11.2199 112.288 10.6599C113.312 10.0999 114.488 9.81993 115.816 9.81993C117.112 9.81993 118.264 10.0919 119.272 10.6359C120.28 11.1799 121.064 11.9559 121.624 12.9639C122.2 13.9719 122.488 15.1479 122.488 16.4919ZM118.288 15.4119C118.288 14.7079 118.048 14.1479 117.568 13.7319C117.088 13.3159 116.488 13.1079 115.768 13.1079C115.08 13.1079 114.496 13.3079 114.016 13.7079C113.552 14.1079 113.264 14.6759 113.152 15.4119H118.288Z" fill="white"/>
<path d="M123.837 15.0039C123.837 13.3559 124.197 11.8839 124.917 10.5879C125.637 9.27593 126.621 8.25993 127.869 7.53993C129.117 6.80393 130.509 6.43593 132.045 6.43593C133.917 6.43593 135.517 6.88393 136.845 7.77993C138.189 8.65993 139.165 9.90793 139.773 11.5239H137.805C137.325 10.3879 136.589 9.49993 135.597 8.85993C134.621 8.21993 133.437 7.89993 132.045 7.89993C130.813 7.89993 129.701 8.18793 128.709 8.76393C127.733 9.33993 126.965 10.1719 126.405 11.2599C125.845 12.3319 125.565 13.5799 125.565 15.0039C125.565 16.4279 125.845 17.6759 126.405 18.7479C126.965 19.8199 127.733 20.6439 128.709 21.2199C129.701 21.7959 130.813 22.0839 132.045 22.0839C133.437 22.0839 134.621 21.7719 135.597 21.1479C136.589 20.5079 137.325 19.6279 137.805 18.5079H139.773C139.165 20.1079 138.189 21.3479 136.845 22.2279C135.501 23.1079 133.901 23.5479 132.045 23.5479C130.509 23.5479 129.117 23.1879 127.869 22.4679C126.621 21.7319 125.637 20.7159 124.917 19.4199C124.197 18.1239 123.837 16.6519 123.837 15.0039Z" fill="white"/>
<path d="M148.88 10.0599C149.872 10.0599 150.76 10.2679 151.544 10.6839C152.344 11.0999 152.968 11.7399 153.416 12.6039C153.88 13.4519 154.112 14.4919 154.112 15.7239V23.4039H152.456V15.9159C152.456 14.4919 152.096 13.4039 151.376 12.6519C150.672 11.8999 149.704 11.5239 148.472 11.5239C147.208 11.5239 146.2 11.9239 145.448 12.7239C144.696 13.5239 144.32 14.6999 144.32 16.2519V23.4039H142.64V5.64393H144.32V12.5319C144.736 11.7479 145.344 11.1399 146.144 10.7079C146.96 10.2759 147.872 10.0599 148.88 10.0599Z" fill="white"/>
<path d="M169.204 16.1799C169.204 16.7559 169.188 17.1959 169.156 17.4999H158.284C158.332 18.4919 158.572 19.3399 159.004 20.0439C159.436 20.7479 160.004 21.2839 160.708 21.6519C161.412 22.0039 162.18 22.1799 163.012 22.1799C164.1 22.1799 165.012 21.9159 165.748 21.3879C166.5 20.8599 166.996 20.1479 167.236 19.2519H169.012C168.692 20.5319 168.004 21.5799 166.948 22.3959C165.908 23.1959 164.596 23.5959 163.012 23.5959C161.78 23.5959 160.676 23.3239 159.7 22.7799C158.724 22.2199 157.956 21.4359 157.396 20.4279C156.852 19.4039 156.58 18.2119 156.58 16.8519C156.58 15.4919 156.852 14.2999 157.396 13.2759C157.94 12.2519 158.7 11.4679 159.676 10.9239C160.652 10.3799 161.764 10.1079 163.012 10.1079C164.26 10.1079 165.348 10.3799 166.276 10.9239C167.22 11.4679 167.94 12.2039 168.436 13.1319C168.948 14.0439 169.204 15.0599 169.204 16.1799ZM167.5 16.1319C167.516 15.1559 167.316 14.3239 166.9 13.6359C166.5 12.9479 165.948 12.4279 165.244 12.0759C164.54 11.7239 163.772 11.5479 162.94 11.5479C161.692 11.5479 160.628 11.9479 159.748 12.7479C158.868 13.5479 158.38 14.6759 158.284 16.1319H167.5Z" fill="white"/>
<path d="M171.029 16.8519C171.029 15.4919 171.301 14.3079 171.846 13.2999C172.39 12.2759 173.141 11.4919 174.102 10.9479C175.062 10.3879 176.158 10.1079 177.389 10.1079C179.005 10.1079 180.334 10.5079 181.374 11.3079C182.43 12.1079 183.109 13.1959 183.413 14.5719H181.614C181.39 13.6279 180.902 12.8919 180.15 12.3639C179.414 11.8199 178.493 11.5479 177.389 11.5479C176.509 11.5479 175.717 11.7479 175.014 12.1479C174.31 12.5479 173.749 13.1479 173.333 13.9479C172.934 14.7319 172.734 15.6999 172.734 16.8519C172.734 18.0039 172.934 18.9799 173.333 19.7799C173.749 20.5799 174.31 21.1799 175.014 21.5799C175.717 21.9799 176.509 22.1799 177.389 22.1799C178.493 22.1799 179.414 21.9159 180.15 21.3879C180.902 20.8439 181.39 20.0919 181.614 19.1319H183.413C183.109 20.4759 182.43 21.5559 181.374 22.3719C180.318 23.1879 178.99 23.5959 177.389 23.5959C176.158 23.5959 175.062 23.3239 174.102 22.7799C173.141 22.2199 172.39 21.4359 171.846 20.4279C171.301 19.4039 171.029 18.2119 171.029 16.8519Z" fill="white"/>
<path d="M193.116 23.4039L187.716 17.5239V23.4039H186.036V5.64393H187.716V16.1559L192.996 10.2999H195.348L189.132 16.8279L195.396 23.4039H193.116Z" fill="white"/>
<path d="M208.943 16.1799C208.943 16.7559 208.927 17.1959 208.895 17.4999H198.023C198.072 18.4919 198.311 19.3399 198.743 20.0439C199.176 20.7479 199.743 21.2839 200.447 21.6519C201.151 22.0039 201.919 22.1799 202.751 22.1799C203.839 22.1799 204.751 21.9159 205.488 21.3879C206.24 20.8599 206.735 20.1479 206.975 19.2519H208.751C208.431 20.5319 207.743 21.5799 206.688 22.3959C205.648 23.1959 204.335 23.5959 202.751 23.5959C201.52 23.5959 200.415 23.3239 199.439 22.7799C198.464 22.2199 197.695 21.4359 197.135 20.4279C196.591 19.4039 196.319 18.2119 196.319 16.8519C196.319 15.4919 196.591 14.2999 197.135 13.2759C197.68 12.2519 198.439 11.4679 199.415 10.9239C200.391 10.3799 201.503 10.1079 202.751 10.1079C203.999 10.1079 205.088 10.3799 206.016 10.9239C206.96 11.4679 207.679 12.2039 208.175 13.1319C208.687 14.0439 208.943 15.0599 208.943 16.1799ZM207.24 16.1319C207.256 15.1559 207.055 14.3239 206.639 13.6359C206.24 12.9479 205.687 12.4279 204.983 12.0759C204.279 11.7239 203.511 11.5479 202.679 11.5479C201.431 11.5479 200.368 11.9479 199.488 12.7479C198.607 13.5479 198.119 14.6759 198.023 16.1319H207.24Z" fill="white"/>
<path d="M213.217 12.6279C213.585 11.8119 214.145 11.1799 214.897 10.7319C215.665 10.2839 216.601 10.0599 217.705 10.0599V11.8119H217.249C216.033 11.8119 215.057 12.1399 214.321 12.7959C213.585 13.4519 213.217 14.5479 213.217 16.0839V23.4039H211.537V10.2999H213.217V12.6279Z" fill="white"/>
</g>
<defs>
<linearGradient id="paint0_linear_36_13114" x1="0.000795503" y1="13.8725" x2="27.271" y2="13.8725" gradientUnits="userSpaceOnUse">
<stop stop-color="#78C63C"/>
<stop offset="1" stop-color="#00AA89"/>
</linearGradient>
<linearGradient id="paint1_linear_36_13114" x1="4.34433" y1="14.9661" x2="22.9274" y2="14.9661" gradientUnits="userSpaceOnUse">
<stop stop-color="#78C63C"/>
<stop offset="1" stop-color="#00AA89"/>
</linearGradient>
<clipPath id="clip0_36_13114">
<rect width="217.705" height="27.776" fill="white"/>
</clipPath>
</defs>
</svg>
