<svg width="20" height="19" viewBox="0 0 20 19" fill="none" xmlns="http://www.w3.org/2000/svg">
<path opacity="0.5" d="M10.0001 14.068L6.22908 17.973C5.68908 18.532 5.41908 18.812 5.18908 18.908C4.66908 19.128 4.09008 18.94 3.81608 18.46C3.69608 18.25 3.65808 17.87 3.58408 17.11C3.54108 16.68 3.52008 16.466 3.45608 16.286C3.38774 16.0901 3.27768 15.9114 3.13351 15.7622C2.98935 15.613 2.81451 15.497 2.62108 15.422C2.44808 15.355 2.24108 15.333 1.82608 15.289C1.09208 15.212 0.725083 15.173 0.521083 15.049C0.0580832 14.765 -0.124917 14.166 0.0880833 13.627C0.182083 13.39 0.452083 13.11 0.992083 12.551L3.45608 9.99996L4.69408 8.76196L10.0001 14.068L15.3061 8.76196L16.5441 9.99996L19.0081 12.55C19.5481 13.11 19.8181 13.39 19.9121 13.626C20.1251 14.166 19.9421 14.765 19.4791 15.049C19.2751 15.173 18.9091 15.212 18.1741 15.289C17.7601 15.333 17.5521 15.355 17.3791 15.422C16.9901 15.571 16.6891 15.884 16.5441 16.286C16.4801 16.466 16.4591 16.68 16.4161 17.109C16.3411 17.869 16.3041 18.249 16.1841 18.46C15.9101 18.94 15.3311 19.129 14.8101 18.908C14.5821 18.812 14.3121 18.532 13.7721 17.973L10.0001 14.068Z" fill="url(#paint0_linear_30_9485)"/>
<path fill-rule="evenodd" clip-rule="evenodd" d="M10 14C11.8565 14 13.637 13.2625 14.9497 11.9497C16.2625 10.637 17 8.85652 17 7C17 5.14348 16.2625 3.36301 14.9497 2.05025C13.637 0.737498 11.8565 0 10 0C8.14348 0 6.36301 0.737498 5.05025 2.05025C3.7375 3.36301 3 5.14348 3 7C3 8.85652 3.7375 10.637 5.05025 11.9497C6.36301 13.2625 8.14348 14 10 14ZM10 4C9.716 4 9.526 4.34 9.146 5.023L9.048 5.199C8.94 5.393 8.886 5.489 8.802 5.553C8.717 5.617 8.612 5.641 8.402 5.688L8.212 5.732C7.474 5.899 7.105 5.982 7.017 6.264C6.929 6.547 7.181 6.841 7.684 7.429L7.814 7.581C7.957 7.748 8.029 7.831 8.061 7.935C8.093 8.039 8.082 8.15 8.061 8.373L8.041 8.576C7.965 9.361 7.927 9.754 8.156 9.928C8.386 10.102 8.732 9.943 9.423 9.625L9.601 9.543C9.798 9.453 9.896 9.408 10 9.408C10.104 9.408 10.202 9.453 10.399 9.543L10.577 9.625C11.268 9.944 11.614 10.102 11.844 9.928C12.074 9.754 12.035 9.361 11.959 8.576L11.939 8.373C11.918 8.15 11.907 8.039 11.939 7.935C11.971 7.832 12.043 7.748 12.186 7.581L12.316 7.429C12.819 6.841 13.071 6.547 12.983 6.264C12.895 5.982 12.526 5.899 11.788 5.732L11.598 5.688C11.388 5.641 11.283 5.618 11.198 5.553C11.114 5.489 11.06 5.393 10.952 5.199L10.854 5.023C10.474 4.34 10.284 4 10 4Z" fill="url(#paint1_linear_30_9485)"/>
<defs>
<linearGradient id="paint0_linear_30_9485" x1="-0.0214577" y1="13.8796" x2="20.0054" y2="13.8796" gradientUnits="userSpaceOnUse">
<stop stop-color="#78C63C"/>
<stop offset="1" stop-color="#00AA89"/>
</linearGradient>
<linearGradient id="paint1_linear_30_9485" x1="2.98515" y1="6.99824" x2="17.0035" y2="6.99824" gradientUnits="userSpaceOnUse">
<stop stop-color="#78C63C"/>
<stop offset="1" stop-color="#00AA89"/>
</linearGradient>
</defs>
</svg>
