<svg width="18" height="20" viewBox="0 0 18 20" fill="none" xmlns="http://www.w3.org/2000/svg">
<path d="M3.5 2.82998C3.5 4.37698 5.226 6.00799 6.65 7.08998C7.449 7.69598 7.848 7.99998 8.5 7.99998C9.152 7.99998 9.551 7.69598 10.35 7.08998C11.774 6.00698 13.5 4.37598 13.5 2.82998C13.5 0.0399847 10.75 -1.00302 8.5 1.15298C6.25 -1.00302 3.5 0.0399847 3.5 2.82998Z" fill="url(#paint0_linear_30_9491)"/>
<path opacity="0.5" d="M2.76 19.388H2.5C1.557 19.388 1.086 19.388 0.793 19.095C0.5 18.803 0.5 18.332 0.5 17.389V16.277C0.5 15.759 0.5 15.5 0.633 15.268C0.766 15.037 0.967 14.92 1.369 14.686C4.015 13.147 7.771 12.281 10.279 13.776C10.447 13.877 10.599 13.999 10.729 14.144C10.8633 14.2912 10.9668 14.4638 11.0333 14.6516C11.0998 14.8394 11.128 15.0386 11.1163 15.2376C11.1045 15.4365 11.053 15.631 10.9649 15.8097C10.8767 15.9884 10.7537 16.1476 10.603 16.278C10.4828 16.3922 10.3361 16.4747 10.176 16.518C10.296 16.504 10.411 16.488 10.521 16.471C11.432 16.326 12.197 15.838 12.897 15.309L14.705 13.944C15.0275 13.7093 15.4161 13.583 15.815 13.583C16.2139 13.583 16.6024 13.7093 16.925 13.944C17.498 14.377 17.674 15.09 17.311 15.672C16.888 16.35 16.292 17.217 15.72 17.747C15.147 18.277 14.294 18.751 13.598 19.087C12.826 19.46 11.974 19.674 11.107 19.815C9.349 20.099 7.517 20.055 5.777 19.697C4.78429 19.4929 3.77348 19.3887 2.76 19.388Z" fill="url(#paint1_linear_30_9491)"/>
<defs>
<linearGradient id="paint0_linear_30_9491" x1="3.48939" y1="3.99886" x2="13.5025" y2="3.99886" gradientUnits="userSpaceOnUse">
<stop stop-color="#78C63C"/>
<stop offset="1" stop-color="#00AA89"/>
</linearGradient>
<linearGradient id="paint1_linear_30_9491" x1="0.481969" y1="16.4996" x2="17.5044" y2="16.4996" gradientUnits="userSpaceOnUse">
<stop stop-color="#78C63C"/>
<stop offset="1" stop-color="#00AA89"/>
</linearGradient>
</defs>
</svg>
