<svg width="20" height="20" viewBox="0 0 20 20" fill="none" xmlns="http://www.w3.org/2000/svg">
<path opacity="0.5" d="M10 20C15.523 20 20 15.523 20 10C20 4.477 15.523 0 10 0C4.477 0 0 4.477 0 10C0 15.523 4.477 20 10 20Z" fill="url(#paint0_linear_30_9497)"/>
<path d="M4.75 9.99996C4.75 9.74496 4.768 9.49496 4.803 9.24996H8C8.19891 9.24996 8.38968 9.17094 8.53033 9.03029C8.67098 8.88963 8.75 8.69887 8.75 8.49996C8.75 8.30104 8.67098 8.11028 8.53033 7.96963C8.38968 7.82897 8.19891 7.74996 8 7.74996H5.255C5.56561 7.09449 6.00868 6.5105 6.55626 6.03481C7.10383 5.55912 7.74404 5.20207 8.4365 4.98615C9.12896 4.77024 9.85864 4.70016 10.5795 4.78033C11.3004 4.8605 11.9969 5.08918 12.625 5.45196C12.7103 5.50198 12.8047 5.53463 12.9027 5.54803C13.0007 5.56143 13.1004 5.55531 13.196 5.53003C13.2916 5.50475 13.3813 5.4608 13.4599 5.40072C13.5385 5.34064 13.6044 5.26561 13.6538 5.17995C13.7033 5.09429 13.7353 4.9997 13.7481 4.90161C13.7608 4.80353 13.754 4.70389 13.7281 4.60844C13.7022 4.51298 13.6577 4.4236 13.5971 4.34543C13.5364 4.26725 13.461 4.20184 13.375 4.15296C12.5166 3.65788 11.5598 3.35778 10.5724 3.27396C9.585 3.19014 8.59126 3.32464 7.66169 3.66794C6.73212 4.01123 5.88949 4.55489 5.19359 5.26036C4.49769 5.96582 3.96558 6.81579 3.635 7.74996H3C2.80109 7.74996 2.61032 7.82897 2.46967 7.96963C2.32902 8.11028 2.25 8.30104 2.25 8.49996C2.25 8.69887 2.32902 8.88963 2.46967 9.03029C2.61032 9.17094 2.80109 9.24996 3 9.24996H3.291C3.23587 9.74844 3.23587 10.2515 3.291 10.75H3C2.80109 10.75 2.61032 10.829 2.46967 10.9696C2.32902 11.1103 2.25 11.301 2.25 11.5C2.25 11.6989 2.32902 11.8896 2.46967 12.0303C2.61032 12.1709 2.80109 12.25 3 12.25H3.634C3.96462 13.1843 4.49687 14.0345 5.19296 14.74C5.88905 15.4456 6.73192 15.9893 7.66173 16.3325C8.59155 16.6757 9.58551 16.81 10.5731 16.7259C11.5606 16.6419 12.5176 16.3414 13.376 15.846C13.4612 15.7966 13.5359 15.7309 13.5957 15.6527C13.6556 15.5744 13.6994 15.4852 13.7248 15.39C13.7501 15.2948 13.7565 15.1956 13.7435 15.0979C13.7305 15.0003 13.6984 14.9062 13.649 14.821C13.5996 14.7357 13.5339 14.6611 13.4557 14.6012C13.3775 14.5414 13.2882 14.4975 13.193 14.4722C13.0979 14.4468 12.9986 14.4405 12.901 14.4535C12.8033 14.4665 12.7092 14.4986 12.624 14.548C11.9959 14.9107 11.2994 15.1394 10.5785 15.2196C9.85764 15.2998 9.12796 15.2297 8.4355 15.0138C7.74304 14.7978 7.10283 14.4408 6.55525 13.9651C6.00768 13.4894 5.56461 12.9054 5.254 12.25H8C8.19891 12.25 8.38968 12.1709 8.53033 12.0303C8.67098 11.8896 8.75 11.6989 8.75 11.5C8.75 11.301 8.67098 11.1103 8.53033 10.9696C8.38968 10.829 8.19891 10.75 8 10.75H4.803C4.76758 10.5015 4.74987 10.2509 4.75 9.99996Z" fill="url(#paint1_linear_30_9497)"/>
<defs>
<linearGradient id="paint0_linear_30_9497" x1="-0.0212129" y1="9.99748" x2="20.005" y2="9.99748" gradientUnits="userSpaceOnUse">
<stop stop-color="#78C63C"/>
<stop offset="1" stop-color="#00AA89"/>
</linearGradient>
<linearGradient id="paint1_linear_30_9497" x1="2.2378" y1="9.99832" x2="13.7572" y2="9.99832" gradientUnits="userSpaceOnUse">
<stop stop-color="#78C63C"/>
<stop offset="1" stop-color="#00AA89"/>
</linearGradient>
</defs>
</svg>
