<svg width="24" height="24" viewBox="0 0 24 24" fill="none" xmlns="http://www.w3.org/2000/svg">
<path d="M3 8.71003C3 7.23603 3 6.50003 3.393 6.07003C3.53209 5.91706 3.70129 5.79449 3.89 5.71003C4.422 5.47403 5.121 5.70703 6.519 6.17303C7.586 6.52903 8.119 6.70703 8.659 6.68803C8.8571 6.68152 9.05406 6.65539 9.247 6.61003C9.772 6.48503 10.24 6.17303 11.176 5.55003L12.558 4.62803C13.758 3.82803 14.357 3.42803 15.045 3.33703C15.733 3.24403 16.417 3.47203 17.784 3.92803L18.949 4.31603C19.939 4.64603 20.434 4.81103 20.717 5.20403C21 5.59703 21 6.11903 21 7.16203V15.291C21 16.764 21 17.501 20.607 17.931C20.4677 18.0833 20.2985 18.2051 20.11 18.289C19.578 18.526 18.879 18.293 17.481 17.827C16.414 17.471 15.881 17.293 15.341 17.312C15.1429 17.3185 14.9459 17.3447 14.753 17.39C14.228 17.515 13.76 17.827 12.824 18.45L11.442 19.372C10.242 20.172 9.643 20.572 8.955 20.663C8.267 20.756 7.583 20.528 6.216 20.072L5.051 19.684C4.061 19.354 3.566 19.189 3.283 18.796C3 18.403 3 17.88 3 16.838V8.70903V8.71003Z" stroke="#07BD19"/>
<path opacity="0.5" d="M9 6.639V20.5M15 3V17" stroke="#07BD19"/>
</svg>
